<svg xmlns="http://www.w3.org/2000/svg" viewBox="0 0 512 512" style="height: 512px; width: 512px;"><defs><linearGradient x1="0" x2="0" y1="0" y2="1" id="delapouite-distress-signal-gradient-1"><stop offset="0%" stop-color="#93e7be" stop-opacity="1"></stop><stop offset="100%" stop-color="#ea534c" stop-opacity="1"></stop></linearGradient></defs><g class="" transform="translate(0,0)" style=""><g><path d="M68.79 19.5L126.3 88.5L149.7 88.5L92.21 19.5Z" class="" fill="#ea534c" fill-opacity="1" stroke="#5f0e0a" stroke-opacity="1" stroke-width="8"></path><path d="M254.1 19.5L313.5 197.8C319 195.7 324.7 193.8 330.5 192.1L273 19.5Z" class="" fill="#ea534c" fill-opacity="1" stroke="#5f0e0a" stroke-opacity="1" stroke-width="8"></path><path d="M161.9 103.2L159.4 128.3L250.1 237.1C254.5 233 259.1 229.2 263.9 225.6Z" class="" fill="#ea534c" fill-opacity="1" stroke="#5f0e0a" stroke-opacity="1" stroke-width="8"></path><path d="M83.45 106.5L97.64 248.5L129.4 248.5L143.6 106.5Z" class="" fill="#93e7be" fill-opacity="1" stroke="#273830" stroke-opacity="1" stroke-width="10"></path><path d="M385.5 202.5C382.3 202.5 379.1 202.6 375.9 202.7L361 253.8L407.9 232.3L404.9 275.4L445.4 287.8L398.2 320L425.2 356.8L373.4 368.4L381.7 422L307.4 377.8L316.3 307L287.9 262.3L346.8 206.6C271 222.8 212.8 285.9 203.7 364.2L245.2 302.8L283.9 407.3L254 419.8L334.4 460.3L266.2 476.8L214.2 450.2C219.9 465.4 227.6 479.6 236.9 492.5L387.1 492.5L465.6 427.3L420 391.3L465.7 366.5L492.5 380.7L492.5 237C462.4 215.3 425.5 202.5 385.5 202.5Z" class="" fill="#93e7be" fill-opacity="1" stroke="#5f0e0a" stroke-opacity="1" stroke-width="8"></path><path d="M113.5 266.5C100.7 266.5 90.5 276.7 90.5 289.5C90.5 302.3 100.7 312.5 113.5 312.5C126.3 312.5 136.5 302.3 136.5 289.5C136.5 276.7 126.3 266.5 113.5 266.5Z" class="" fill="#93e7be" fill-opacity="1" stroke="#273830" stroke-opacity="1" stroke-width="10"></path><path d="M19.5 277.6L19.5 296.3L79.61 312.5C75.56 306.5 73.03 299.5 72.58 291.9Z" class="" fill="#ea534c" fill-opacity="1" stroke="#5f0e0a" stroke-opacity="1" stroke-width="8"></path><path d="M287.9 284.9L292.1 327L278 352.5L262.7 301.3Z" class="" fill="#93e7be" fill-opacity="1" stroke="#5f0e0a" stroke-opacity="1" stroke-width="8"></path><path d="M463.5 303L448.1 346.4L428.4 321.5Z" class="" fill="#93e7be" fill-opacity="1" stroke="#5f0e0a" stroke-opacity="1" stroke-width="8"></path><path d="M147.6 312.1C143.6 318.2 137.9 323.2 131.3 326.4L189.2 342C190.6 336.1 192.1 330.3 193.9 324.6Z" class="" fill="#ea534c" fill-opacity="1" stroke="#5f0e0a" stroke-opacity="1" stroke-width="8"></path><path d="M318.7 399.2L348.4 422.7L330.1 448.1Z" class="" fill="#93e7be" fill-opacity="1"></path><path d="M187.3 419.2C185 419.7 182.8 420.2 180.4 420.7C110.5 436.2 54.2 448.9 19.5 456.6L19.5 475.1C52.4 467.7 111.2 454.6 184.3 438.3C186.6 437.8 188.8 437.3 191.1 436.8C189.6 431 188.3 425.1 187.3 419.2Z" class="" fill="#ea534c" fill-opacity="1" stroke="#5f0e0a" stroke-opacity="1" stroke-width="8"></path><path d="M362.6 428.6L405.5 444.5L373.2 456.7Z" class="selected" fill="#93e7be" fill-opacity="1" stroke="#5f0e0a" stroke-opacity="1" stroke-width="8"></path></g></g></svg>