<svg xmlns="http://www.w3.org/2000/svg" viewBox="0 0 512 512" style="height: 512px; width: 512px;"><defs><linearGradient id="lorc-eclipse-gradient-1" x1="0" x2="0" y1="0" y2="1"><stop offset="0%" stop-color="#93e7be" stop-opacity="1"></stop><stop offset="100%" stop-color="#ea534c" stop-opacity="1"></stop></linearGradient></defs><g class="" transform="translate(0,0)" style=""><g><path d="M135.688 18.5C128.89 93.342 111.846 103.89 27.781 78.156C112.631 130.178 101.351 143.11 20.938 175.094C108.681 164.824 124.228 179.984 91.688 262.688C109.493 235.128 124.188 218.19 137.97 208.218C126.157 236.478 119.625 267.492 119.625 300.031C119.625 384.215 163.335 457.991 229.281 500.407C187.657 456.573 161.595 397.707 161.595 332.532C161.595 197.609 271.045 88.127 405.97 88.127C436.89 88.127 466.73 93.889 493.97 104.377C455.386 77.507 408.453 61.752 357.906 61.752C302.649 61.752 251.766 80.554 211.344 112.127C215.971 93.344 228.734 74.054 252.374 51.221C190.18 90.942 153.53 95.634 135.69 18.5Z" class="selected" fill="#93e7be" fill-opacity="1" stroke="#46564f" stroke-opacity="1" stroke-width="8"></path><path d="M145.718 95.688C151.388 95.69 157.146 96.935 162.594 99.562C177.1 106.56 185.314 121.372 184.594 136.5C174.334 147.37 165.087 159.196 157 171.844C147.965 174.597 137.925 174.114 128.75 169.688C109.38 160.345 101.25 137.088 110.594 117.718C117.309 103.798 131.232 95.682 145.719 95.688Z" class="" fill="#ea534c" fill-opacity="1" stroke="#ffffff" stroke-opacity="1" stroke-width="8"></path></g></g></svg>