<svg xmlns="http://www.w3.org/2000/svg" viewBox="0 0 512 512" style="height: 512px; width: 512px;"><defs><linearGradient x1="0" x2="0" y1="0" y2="1" id="delapouite-rocket-thruster-gradient-1"><stop offset="0%" stop-color="#93e7be" stop-opacity="1"></stop><stop offset="100%" stop-color="#ea534c" stop-opacity="1"></stop></linearGradient></defs><g class="" transform="translate(0,0)" style=""><g transform="translate(0, 0) scale(1, 1) rotate(-75, 256, 256) skewX(0) skewY(0)"><path d="M36.078 16L16 35.55L16 85.797L87.684 16L36.078 16Z" class="" fill="#ea534c" fill-opacity="1"></path><path d="M157.908 16L60.074 111.26C68.912 110.78 77.794 110.314 87.281 109.893L183.71 16L157.91 16Z" class="" fill="#ea534c" fill-opacity="1"></path><path d="M265.676 16L217.72 62.693C229.45 55.503 242.404 48.156 255.707 41.238C273.68 31.892 292.041 23.582 308.514 18.215C310.98 17.411 313.379 16.685 315.748 16L265.676 16Z" class="" fill="#d0021b" fill-opacity="1"></path><path d="M371.303 16L367.013 19.432C423.957 42.437 464.633 83.114 487.641 140.059L495.801 129.859C475.674 75.84 440.51 38.356 388.93 16L371.3 16Z" class="selected" fill="#93e7be" fill-opacity="1"></path><path d="M427.197 16C455.86 34.214 478.884 58.318 496 88.027L496 63.582C484.442 45.14 469.57 29.234 451.488 16L427.198 16Z" class="" fill="#93e7be" fill-opacity="1"></path><path d="M479.373 16C485.275 21.462 490.828 27.289 496 33.447L496 16L479.373 16Z" class="" fill="#93e7be" fill-opacity="1"></path><path d="M341.316 30.266C335.192 30.158 325.336 31.666 314.09 35.33C299.096 40.216 281.394 48.17 264.012 57.21C257.625 60.54 251.307 64.002 245.064 67.594C272.149 72.782 299.454 85.46 324.801 102.894L394.317 53.24C379.897 44.25 363.852 36.805 346.11 30.89C344.984 30.516 343.358 30.302 341.316 30.266Z" class="" fill="#93e7be" fill-opacity="1"></path><path d="M410.029 64.136L340.039 114.131C349.856 121.871 359.208 130.184 368.046 139.026C376.89 147.862 385.206 157.212 392.948 167.028L442.936 97.042C433.423 84.708 422.362 73.649 410.026 64.137Z" class="" fill="#93e7be" fill-opacity="1"></path><path d="M216.619 82.216C197.225 82.378 179.921 88.148 167.229 100.842C164.639 103.433 162.298 106.261 160.237 109.289C167.974 109.634 175.573 110.154 182.935 110.895C191.535 103.87 203.221 100.235 217.195 100.185C226.591 100.151 237.015 101.735 248.22 104.987C278.1 113.662 312.296 134.183 342.592 164.479C372.888 194.776 393.412 228.975 402.086 258.853C410.76 288.73 407.56 313.058 393.504 327.113C391.363 329.248 388.989 331.136 386.428 332.743C385.013 340.193 383.238 347.571 381.108 354.849C390.626 351.849 399.148 346.926 406.232 339.843C426.542 319.533 429.125 287.423 419.372 253.833C410.012 221.585 389.252 186.84 359.127 155.633L359.037 155.54L358.98 155.484C357.771 154.23 356.551 152.987 355.32 151.754L355.318 151.754C354.086 150.523 352.844 149.303 351.592 148.094L351.532 148.034C351.498 148.004 351.465 147.974 351.432 147.941C320.227 117.821 285.486 97.061 253.24 87.701C240.644 84.043 228.255 82.121 216.62 82.218Z" class="" fill="#93e7be" fill-opacity="1"></path><path d="M453.83 112.76L404.178 182.275C421.615 207.629 434.278 234.945 439.463 262.037C443.061 255.785 446.528 249.459 449.863 243.063C458.903 225.681 466.855 207.979 471.74 192.985C476.626 177.992 477.68 165.469 476.18 160.968C470.266 143.226 462.82 127.183 453.83 112.761Z" class="" fill="#93e7be" fill-opacity="1"></path><path d="M138.064 127.066C113.64 126.963 88.544 128.14 65.284 129.283C72.974 131.373 80.214 133.246 88.156 135.626C117.846 144.526 147.846 155.138 162.906 175.843L175.371 192.98L154.383 190.05C108.481 183.64 80.013 195.094 52.913 205.743C86.683 213.031 111.419 220.991 140.596 242.473L154.556 252.751L138.116 258.255C78.56 278.195 47.45 315.047 16 357.834L16 379.977C25.58 374.907 35.283 369.381 45.057 364.043C72.21 349.211 100.907 335.697 130.559 344.471L138.399 346.791L136.839 354.819C130.036 389.829 108.812 446.264 88.831 496.001L104.286 496.001C148.356 445.233 197.616 382.194 213.28 349.405L220.44 334.421L229.084 348.599C234.868 358.083 232.751 368.365 230.057 380.323C227.363 392.281 222.777 406.013 217.879 420.203C211.655 438.227 205.343 456.913 201.327 472.393C213.865 459.913 226.925 443.163 238.169 425.481C254.969 399.061 268.055 370.381 271.755 352.966L276.77 329.353L288.438 350.487C300.794 372.872 299.405 402.787 295.434 435.21C293.064 454.556 289.614 474.848 286.58 494.863C301.45 472.553 319.15 446.503 334.887 417.503C359.73 371.713 378.149 320.62 369.677 273.627C366.954 258.52 356.531 239.624 341.35 220.797C320.185 227.263 298.91 241.689 278.475 261.619C295.565 231.669 301.975 211.655 315.658 196.394C291.08 207.076 258.482 225.966 224.395 259.159C244.049 233.901 264.49 195.089 278.33 167.681C257.958 183.321 226.88 199.058 207.12 211.491C216.92 196.381 237.59 167.811 243.637 144.534C232.654 139.558 221.879 135.846 211.767 133.769L211.619 133.737L211.469 133.702C191.246 128.829 165.293 127.179 138.065 127.062Z" class="" fill="#ea534c" fill-opacity="1"></path><path d="M31.73 138.86L16 154.177L16 179.3L51.928 144.316C44.916 142.474 37.982 140.653 31.728 138.861Z" class="" fill="#ea534c" fill-opacity="1"></path><path d="M113.777 163.9L105.647 171.816C112.811 170.881 120.025 170.378 127.25 170.312C123.107 168.095 118.565 165.957 113.777 163.9Z" class="" fill="#ea534c" fill-opacity="1"></path><path d="M52.14 223.916L16 259.106L16 309.35L91.926 235.422C79.87 230.577 67.19 227.2 52.14 223.916Z" class="" fill="#ea534c" fill-opacity="1"></path><path d="M496 287.72L346.97 432.83C333.95 456.065 319.857 477.513 307.53 496.002L333.693 496.002L496 337.965L496 287.72Z" class="" fill="#ea534c" fill-opacity="1"></path><path d="M111.55 359.795C107.63 359.795 103.64 360.221 99.578 360.998L16 442.378L16 467.5L113.834 372.242C115.036 367.966 116.119 363.882 117.027 360.08C115.208 359.888 113.38 359.793 111.551 359.795Z" class="" fill="#ea534c" fill-opacity="1"></path><path d="M496 368.81L365.373 496L391.173 496L496 393.934L496 368.81Z" class="" fill="#ea534c" fill-opacity="1"></path><path d="M200.723 414.734L173.403 441.336C159.233 459.646 143.905 478.329 128.779 496L143.061 496L187.801 452.44C191.708 440.055 196.407 427.215 200.721 414.734Z" class="" fill="#ea534c" fill-opacity="1"></path></g></g></svg>